<svg width="17" height="16" viewBox="0 0 17 16" fill="none" xmlns="http://www.w3.org/2000/svg">
<path d="M13.6613 6.66659C13.6613 9.99525 9.96863 13.4619 8.72863 14.5326C8.61311 14.6194 8.47249 14.6664 8.32796 14.6664C8.18343 14.6664 8.04281 14.6194 7.9273 14.5326C6.6873 13.4619 2.99463 9.99525 2.99463 6.66659C2.99463 5.2521 3.55653 3.89554 4.55673 2.89535C5.55692 1.89516 6.91347 1.33325 8.32796 1.33325C9.74245 1.33325 11.099 1.89516 12.0992 2.89535C13.0994 3.89554 13.6613 5.2521 13.6613 6.66659Z" stroke="#4A5565" stroke-width="1.33333" stroke-linecap="round" stroke-linejoin="round"/>
<path d="M8.32812 8.66675C9.43269 8.66675 10.3281 7.77132 10.3281 6.66675C10.3281 5.56218 9.43269 4.66675 8.32812 4.66675C7.22356 4.66675 6.32812 5.56218 6.32812 6.66675C6.32812 7.77132 7.22356 8.66675 8.32812 8.66675Z" stroke="#4A5565" stroke-width="1.33333" stroke-linecap="round" stroke-linejoin="round"/>
</svg>
